<svg width="692" height="1025" viewBox="0 0 692 1025" fill="none" xmlns="http://www.w3.org/2000/svg">
<path d="M522 826.525C443.741 748.026 236.708 739.165 236.708 739.165H103.517V512.805C103.517 512.805 101.17 152.014 207.171 98.8507L112.488 0C112.488 0 78.2586 21.5976 78.2586 489.962V739.165H51.7583C23.1877 739.165 0 762.424 0 791.083C0 819.741 23.1877 843 51.7583 843C80.3289 843 103.517 819.741 103.517 791.083V764.778C354.027 769.485 429.801 842.862 429.801 842.862L522 826.525ZM78.2586 791.083C78.2586 805.758 66.3887 817.664 51.7583 817.664C37.128 817.664 25.2581 805.758 25.2581 791.083C25.2581 776.407 37.128 764.501 51.7583 764.501H78.2586V791.083Z" fill="#282829"/>
<path d="M692 1008.52C613.741 930.026 406.708 921.165 406.708 921.165H273.517V694.805C273.517 694.805 271.17 334.014 377.171 280.851L282.488 182C282.488 182 248.259 203.598 248.259 671.962V921.165H221.758C193.188 921.165 170 944.424 170 973.083C170 1001.74 193.188 1025 221.758 1025C250.329 1025 273.517 1001.74 273.517 973.083V946.778C524.027 951.485 599.801 1024.86 599.801 1024.86L692 1008.52ZM248.259 973.083C248.259 987.758 236.389 999.664 221.758 999.664C207.128 999.664 195.258 987.758 195.258 973.083C195.258 958.407 207.128 946.501 221.758 946.501H248.259V973.083Z" fill="#282829"/>
</svg>
